<svg width="987" height="204" viewBox="0 0 987 204" fill="none" xmlns="http://www.w3.org/2000/svg">
<path d="M360.26 14.5V97H338.59V22.64L343.43 23.19L311.53 97H288.43L256.42 23.41L261.37 22.86V97H239.7V14.5H274.9L304.49 85.34H295.69L325.06 14.5H360.26ZM393.956 81.16V62.79H450.826V81.16H393.956ZM437.846 14.5L475.356 97H451.046L419.586 24.18H426.186L394.616 97H370.306L407.816 14.5H437.846ZM499.432 97V56.85H522.312V97H499.432ZM460.712 14.5H486.012L515.932 52.56H505.702L535.512 14.5H560.812L518.132 68.73L503.502 68.95L460.712 14.5ZM571.466 97V14.5H594.126V78.85L588.076 74.12L634.826 14.5H658.916L592.036 97H571.466ZM610.846 57.62L627.566 43.76L660.016 97H634.166L610.846 57.62ZM709.22 98.76C699.467 98.76 690.887 96.9633 683.48 93.37C676.147 89.7767 670.427 84.7533 666.32 78.3C662.287 71.8467 660.27 64.33 660.27 55.75C660.27 47.17 662.287 39.6533 666.32 33.2C670.427 26.7467 676.147 21.7233 683.48 18.13C690.887 14.5367 699.467 12.74 709.22 12.74C719.047 12.74 727.627 14.5367 734.96 18.13C742.294 21.7233 748.014 26.7467 752.12 33.2C756.227 39.6533 758.28 47.17 758.28 55.75C758.28 64.33 756.227 71.8467 752.12 78.3C748.014 84.7533 742.294 89.7767 734.96 93.37C727.627 96.9633 719.047 98.76 709.22 98.76ZM709.22 78.41C714.574 78.41 719.194 77.4933 723.08 75.66C726.967 73.8267 729.937 71.2233 731.99 67.85C734.117 64.4767 735.18 60.4433 735.18 55.75C735.18 51.0567 734.117 47.0233 731.99 43.65C729.937 40.2767 726.967 37.6733 723.08 35.84C719.194 34.0067 714.574 33.09 709.22 33.09C703.94 33.09 699.357 34.0067 695.47 35.84C691.584 37.6733 688.577 40.2767 686.45 43.65C684.324 47.0233 683.26 51.0567 683.26 55.75C683.26 60.4433 684.324 64.4767 686.45 67.85C688.577 71.2233 691.584 73.8267 695.47 75.66C699.357 77.4933 703.94 78.41 709.22 78.41ZM794.753 24.51H817.633V97H794.753V24.51ZM763.293 14.5H849.093V34.74H763.293V14.5ZM886.973 24.51H909.853V97H886.973V24.51ZM855.513 14.5H941.313V34.74H855.513V14.5Z" fill="black"/>
<path d="M239.7 107.5H262.47V190H239.7V107.5ZM304.6 107.5H327.48V190H304.6V107.5ZM252.46 137.97H314.06V158.21H252.46V137.97ZM390.452 191.76C380.699 191.76 372.119 189.963 364.712 186.37C357.379 182.777 351.659 177.753 347.552 171.3C343.519 164.847 341.502 157.33 341.502 148.75C341.502 140.17 343.519 132.653 347.552 126.2C351.659 119.747 357.379 114.723 364.712 111.13C372.119 107.537 380.699 105.74 390.452 105.74C400.279 105.74 408.859 107.537 416.192 111.13C423.526 114.723 429.246 119.747 433.352 126.2C437.459 132.653 439.512 140.17 439.512 148.75C439.512 157.33 437.459 164.847 433.352 171.3C429.246 177.753 423.526 182.777 416.192 186.37C408.859 189.963 400.279 191.76 390.452 191.76ZM390.452 171.41C395.806 171.41 400.426 170.493 404.312 168.66C408.199 166.827 411.169 164.223 413.222 160.85C415.349 157.477 416.412 153.443 416.412 148.75C416.412 144.057 415.349 140.023 413.222 136.65C411.169 133.277 408.199 130.673 404.312 128.84C400.426 127.007 395.806 126.09 390.452 126.09C385.172 126.09 380.589 127.007 376.702 128.84C372.816 130.673 369.809 133.277 367.682 136.65C365.556 140.023 364.492 144.057 364.492 148.75C364.492 153.443 365.556 157.477 367.682 160.85C369.809 164.223 372.816 166.827 376.702 168.66C380.589 170.493 385.172 171.41 390.452 171.41ZM476.235 107.5V179.88L466.005 169.76H527.715V190H453.465V107.5H476.235ZM580.809 107.5C590.562 107.5 599.106 109.223 606.439 112.67C613.846 116.043 619.566 120.847 623.599 127.08C627.706 133.24 629.759 140.463 629.759 148.75C629.759 157.037 627.706 164.297 623.599 170.53C619.566 176.69 613.846 181.493 606.439 184.94C599.106 188.313 590.562 190 580.809 190H539.669V107.5H580.809ZM562.329 180.43L551.439 169.76H582.569C587.482 169.76 591.736 168.917 595.329 167.23C598.996 165.47 601.819 163.013 603.799 159.86C605.779 156.707 606.769 153.003 606.769 148.75C606.769 144.423 605.779 140.72 603.799 137.64C601.819 134.487 598.996 132.067 595.329 130.38C591.736 128.62 587.482 127.74 582.569 127.74H551.439L562.329 117.07V180.43ZM643.705 107.5H666.475V190H643.705V107.5ZM760.49 174.05L753.45 175.48V107.5H775.56V190H746.85L699.22 122.13L706.15 120.7V190H684.04V107.5H713.52L760.49 174.05ZM877.605 154.25C877.385 159.237 876.358 164.003 874.525 168.55C872.765 173.023 870.161 177.02 866.715 180.54C863.341 184.06 859.088 186.81 853.955 188.79C848.895 190.77 842.991 191.76 836.245 191.76C829.791 191.76 823.741 190.843 818.095 189.01C812.448 187.103 807.461 184.317 803.135 180.65C798.881 176.983 795.545 172.473 793.125 167.12C790.778 161.767 789.605 155.643 789.605 148.75C789.605 141.857 790.815 135.733 793.235 130.38C795.655 125.027 799.028 120.517 803.355 116.85C807.755 113.183 812.815 110.433 818.535 108.6C824.328 106.693 830.635 105.74 837.455 105.74C846.548 105.74 854.395 107.133 860.995 109.92C867.595 112.707 872.911 116.52 876.945 121.36C880.978 126.2 883.581 131.81 884.755 138.19H861.765C861.031 135.403 859.528 133.02 857.255 131.04C855.055 128.987 852.268 127.447 848.895 126.42C845.595 125.32 841.818 124.77 837.565 124.77C832.431 124.77 827.995 125.687 824.255 127.52C820.515 129.28 817.618 131.957 815.565 135.55C813.511 139.07 812.485 143.47 812.485 148.75C812.485 154.103 813.585 158.613 815.785 162.28C817.985 165.947 821.101 168.697 825.135 170.53C829.241 172.363 834.045 173.28 839.545 173.28C844.898 173.28 849.628 172.547 853.735 171.08C857.841 169.54 861.105 167.303 863.525 164.37C866.018 161.437 867.448 157.917 867.815 153.81L877.605 154.25ZM841.745 163.38V147.32H885.525V190H869.355L866.165 157.33L870.455 163.38H841.745ZM897.61 162.94H920.82C921.187 165.213 922.25 167.193 924.01 168.88C925.77 170.567 928.117 171.887 931.05 172.84C934.057 173.72 937.577 174.16 941.61 174.16C947.183 174.16 951.583 173.463 954.81 172.07C958.037 170.603 959.65 168.477 959.65 165.69C959.65 163.563 958.733 161.913 956.9 160.74C955.067 159.567 951.547 158.723 946.34 158.21L930.94 156.78C919.573 155.753 911.323 153.187 906.19 149.08C901.057 144.9 898.49 139.29 898.49 132.25C898.49 126.53 900.14 121.69 903.44 117.73C906.813 113.77 911.507 110.8 917.52 108.82C923.607 106.767 930.683 105.74 938.75 105.74C946.67 105.74 953.71 106.877 959.87 109.15C966.03 111.35 970.907 114.503 974.5 118.61C978.167 122.717 980.147 127.483 980.44 132.91H957.34C957.047 130.93 956.093 129.243 954.48 127.85C952.94 126.383 950.813 125.283 948.1 124.55C945.387 123.743 942.123 123.34 938.31 123.34C933.177 123.34 929.107 124.037 926.1 125.43C923.093 126.75 921.59 128.73 921.59 131.37C921.59 133.277 922.47 134.817 924.23 135.99C926.063 137.163 929.327 137.97 934.02 138.41L950.41 140.06C958.257 140.793 964.527 142.077 969.22 143.91C973.913 145.67 977.323 148.127 979.45 151.28C981.577 154.433 982.64 158.357 982.64 163.05C982.64 168.843 980.917 173.903 977.47 178.23C974.023 182.483 969.183 185.82 962.95 188.24C956.717 190.587 949.457 191.76 941.17 191.76C932.663 191.76 925.147 190.587 918.62 188.24C912.167 185.82 907.107 182.447 903.44 178.12C899.773 173.72 897.83 168.66 897.61 162.94Z" fill="black"/>
<path d="M205 204H0V0H205V204ZM66.9824 36L37.0254 65.9365H119.601L37 148.463V168.975H57.5283L57.5566 169L141.227 85.4062V168.975L169 141.219V36H66.9824Z" fill="#C5A859"/>
</svg>
